<!DOCTYPE svg PUBLIC "-//W3C//DTD SVG 1.1//EN" "http://www.w3.org/Graphics/SVG/1.1/DTD/svg11.dtd">
<!-- Uploaded to: SVG Repo, www.svgrepo.com, Transformed by: SVG Repo Mixer Tools -->
<svg fill="#ffffff" height="800px" width="800px" version="1.1" xmlns="http://www.w3.org/2000/svg" viewBox="0 0 425.212 425.212" xmlns:xlink="http://www.w3.org/1999/xlink" enable-background="new 0 0 425.212 425.212" stroke="#ffffff">
<g id="SVGRepo_bgCarrier" stroke-width="0"/>
<g id="SVGRepo_tracerCarrier" stroke-linecap="round" stroke-linejoin="round"/>
<g id="SVGRepo_iconCarrier"> <g> <path d="m191.67,240.859c25.369,0 50.738-9.656 70.052-28.969 38.625-38.626 38.625-101.476 0-140.103-38.627-38.626-101.477-38.626-140.104,0-18.711,18.711-29.016,43.589-29.016,70.051 0,23.1 7.854,44.991 22.296,62.629l-111.969,111.969c-3.905,3.905-3.905,10.237-2.22045e-15,14.143 1.953,1.953 4.512,2.929 7.071,2.929s5.118-0.976 7.071-2.929l111.974-111.974c18.158,14.835 40.391,22.254 62.625,22.254zm-55.909-154.93c15.416-15.416 35.659-23.121 55.909-23.121 20.245,0 40.497,7.709 55.909,23.121 30.828,30.829 30.828,80.99 0,111.818-30.827,30.828-80.989,30.829-111.818,0-14.935-14.934-23.158-34.79-23.158-55.909s8.223-40.975 23.158-55.909z"/> <path d="m152.329,191.18c2.56,0 5.118-0.977 7.071-2.929l26.742-26.743c3.905-3.905 3.905-10.237 0-14.142-3.906-3.905-10.236-3.905-14.143,0l-26.742,26.743c-3.905,3.905-3.905,10.237 0,14.142 1.954,1.953 4.513,2.929 7.072,2.929z"/> <path d="m420.212,278.43c-3.094-1.786-6.906-1.786-10,0l-59.8,34.526c-4.556-20.601-22.954-36.061-44.905-36.061h-84.755c-21.951,0-40.349,15.46-44.905,36.061l-59.801-34.526c-3.094-1.786-6.906-1.786-10,0s-5,5.087-5,8.66v85.11c0,3.573 1.906,6.874 5,8.66 1.547,0.894 3.273,1.34 5,1.34s3.453-0.447 5-1.34l59.801-34.526c4.556,20.601 22.954,36.061 44.905,36.061h84.755c21.951,0 40.349-15.46 44.905-36.061l59.8,34.526c1.547,0.893 3.273,1.34 5,1.34s3.453-0.447 5-1.34c3.094-1.786 5-5.087 5-8.66v-85.11c5.68434e-14-3.573-1.906-6.874-5-8.66zm-299.166,76.449v-50.469l43.708,25.235-43.708,25.234zm210.459-18.482c0,14.335-11.663,25.998-25.998,25.998h-84.755c-14.335,0-25.998-11.663-25.998-25.998v-13.504c0-14.335 11.663-25.998 25.998-25.998h84.755c14.335,0 25.998,11.663 25.998,25.998v13.504zm73.707,18.482l-43.707-25.234 43.707-25.234v50.468z"/> <path d="m360.208,252.363c12.9,0 25.029-5.023 34.151-14.146 9.122-9.123 14.146-21.251 14.146-34.151s-5.023-25.029-14.146-34.151c-9.122-9.122-21.251-14.146-34.151-14.146s-25.029,5.023-34.151,14.146c-9.122,9.123-14.146,21.251-14.146,34.151s5.023,25.029 14.146,34.151c9.122,9.122 21.251,14.146 34.151,14.146zm-20.009-68.306c5.345-5.345 12.45-8.288 20.009-8.288s14.664,2.943 20.009,8.288c5.345,5.344 8.288,12.451 8.288,20.009s-2.943,14.665-8.288,20.009c-5.345,5.345-12.45,8.288-20.009,8.288s-14.664-2.943-20.009-8.288c-5.345-5.344-8.288-12.451-8.288-20.009s2.944-14.665 8.288-20.009z"/> </g> </g>
</svg>